<svg id="Capa_1" data-name="Capa 1" xmlns="http://www.w3.org/2000/svg" viewBox="0 0 19.94 19.74"><defs><style>.cls-1{fill:#1d1d1b;}.cls-1,.cls-2{fill-rule:evenodd;}.cls-2{fill:#fff;}</style></defs><title>Logo IPPU</title><path class="cls-1" d="M384.71,353.77h1.09v.64h-1.09Zm3.6-7.32h.37a38.13,38.13,0,0,1,.07-4.22c.45-.2.93.24,1.63.67a13.17,13.17,0,0,0,1.64.94c0-.4-.14-1.29.08-1.56,0,0,0-.22.35-.12s2.38,1.5,2.86,1.65c0-1.88-.18-2.05,1.47-1.06l.59.34c.16.1.3.19.24.4-.18.6-.92-.08-1.6-.45l0,1.07h2.62a10.23,10.23,0,0,1,.11-1.9c.49-.19,1.36.52,2.08.94l1,.61c.36.22.81.33.81.82v9c0,.82-.65.76-1.21.76H387.71v-.64h14l.26,0,0-.25v-.43H383.34v.43l0,.26h.85v.64h-.67c-.55,0-.86-.2-.86-.76v-6.69c0-.7.42-.46,1.05-.51.2-2.27,1-5.75.94-7.82,0-1-.12-.8,2.14-.8.85,0,.34.42.55,2,.16,1.14.77,6,.93,6.68" transform="translate(-382.7 -334.67)"/><path class="cls-2" d="M402,345.78c-.48.05-1.09,0-1.56,0-1,0-1.1-.11-1.07.51a9.21,9.21,0,0,0,2.64.13v6h-8c-.24-5.6.8-5.34-2-5.34-2.6,0-1.88-.51-2,5.34h-.68c-.15-1.37,0-3.6,0-5,0-3.1-.34-2.62,1.2-2.62,1.22,0,10.83-.05,11.43,0Z" transform="translate(-382.7 -334.67)"/><path class="cls-2" d="M388.68,348.09h-1.14c-.59,0-.68.51-.27.63a12.7,12.7,0,0,0,1.4,0v3.69l-1.32,0c-.11-1,.37-2.33-.82-2.33-2,0-1.85-.13-1.85,2.35l-1.32,0,0-5.3c1.09-.07,4,0,5.33,0Z" transform="translate(-382.7 -334.67)"/><path class="cls-1" d="M388.89,341.18l0-.43c.4-.14.55.07,1,0a1.36,1.36,0,0,0,1.4-1.11c.17-.87.7-.64.66,0a3.76,3.76,0,0,1-.07.43c.93-.16,1.34-.34,1.7-1-.28,0-.51,0-.48-.35,0-.6,1.25,0,1.76-1a1.47,1.47,0,0,0-1.56-2.06c-.57,0-1.13.55-1.5.37-.3-.36-.1-.33.08-.65-3.46-.44-2.51,1.71-3.21,1.71s.07-1.34.13-1.57a2.11,2.11,0,0,0-2.52.46c-.38.53-.1,1.32-.84,1-.36-.95.61-1.87,1.17-2.13a2.87,2.87,0,0,1,2.09-.11c1.06.3.34.35,1.24,0a2.82,2.82,0,0,1,.72-.15,4.41,4.41,0,0,1,1.56.15c.19.06.46.2.61.23a2.75,2.75,0,0,1,2.05.46,2,2,0,0,1-.28,3.32c-.65.31-.19.36-.72,1-.81,1-2,.74-2.45,1a2.2,2.2,0,0,1-2.55.37" transform="translate(-382.7 -334.67)"/><polygon class="cls-2" points="4.95 11.78 1.71 11.78 2.62 5.1 4.03 5.11 4.95 11.78"/><path class="cls-2" d="M393.37,347.95v.47c-.6.12-1.42-.1-1.91.1-.22.52.07.58.58.58s.9,0,1.34,0c0,1.17-.08.53-1.63.68-.35,0-.36.17-.35.51.49.26,1.31,0,2,.16v.61c-1,.08-2.11-.21-2,.43s2-.38,2,.65v.25c-.57.08-2,0-2.68,0v-4.69h2.13c.32,0,.55-.08.55.2" transform="translate(-382.7 -334.67)"/><path class="cls-1" d="M397.65,348.87c0,2,.2,1.87-2.13,1.87-1,0-.86-.65-.86-1.8s.9-.85,2.14-.85c.56,0,.85.23.85.78" transform="translate(-382.7 -334.67)"/><path class="cls-1" d="M400.79,348.14c.46.15.5.32.5.87,0,1.45.2,1.73-1.14,1.73a6.93,6.93,0,0,1-1.39,0c-.72-.23-.41-2.08-.36-2.22.26-.64,2.26-.38,2.39-.34" transform="translate(-382.7 -334.67)"/><path class="cls-1" d="M398.08,346.43c-.68,0-3.22.14-3.69-.14-.06-.41,0-.5.41-.5h3.35c.73,0,.63.63-.07.63" transform="translate(-382.7 -334.67)"/><path class="cls-2" d="M386.69,352.43h-1.32c0-.21,0-1.34,0-1.49.06-.34.48-.2,1.33-.2Z" transform="translate(-382.7 -334.67)"/><polygon class="cls-2" points="14.32 15.42 12.6 15.42 12.61 14.1 14.28 14.08 14.32 15.42"/><polygon class="cls-2" points="17.95 15.42 16.29 15.42 16.3 14.08 17.98 14.08 17.95 15.42"/><path class="cls-1" d="M386.31,348.25c.07.66-.31.49-1.76.49-.74,0-.72-.66.14-.66.52,0,1.3-.1,1.62.17" transform="translate(-382.7 -334.67)"/><path class="cls-2" d="M391.09,344.11l-.27,0h-1.21l-.27,0v-1a9,9,0,0,1,1.75,1" transform="translate(-382.7 -334.67)"/><polygon class="cls-2" points="18.37 9.41 18.09 9.46 16.88 9.46 16.59 9.45 16.59 8.37 18.37 9.41"/><path class="cls-2" d="M394.4,344.12h-1.73V343l1.61,1a.57.57,0,0,1,.12.12" transform="translate(-382.7 -334.67)"/><polygon class="cls-2" points="3.99 4.47 2.92 4.47 2.65 4.45 2.65 3.82 2.92 3.78 3.98 3.79 3.99 4.47"/></svg>