<svg id="Capa_1" data-name="Capa 1" xmlns="http://www.w3.org/2000/svg" viewBox="0 0 25.27 21.35"><defs><style>.cls-1{fill:#1d1d1b;}.cls-1,.cls-2{fill-rule:evenodd;}.cls-2{fill:#fff;}</style></defs><title>Logo AFOLU</title><path class="cls-1" d="M404.57,350.3c.13.32.58.3.42,1.09-.29,1.45-1.11,1.31-1.36.11-.22-1,.39-.87.39-1.3V348a1.77,1.77,0,0,0-1.34-1.74,3.24,3.24,0,0,1,1,1.59,3,3,0,0,1-.84,2.91,1.26,1.26,0,0,0-.58.76,22.9,22.9,0,0,0-.06,2.6,24,24,0,0,1,2.7.08.28.28,0,0,1-.19.5h-5a.63.63,0,0,1-.32-.08c-.18-.51.21-.47.52-.5a3.62,3.62,0,0,0-.13-1.34,5,5,0,0,0-.27-.5c-.31-.59.26-.46-2.11-.46-.2,0-.2.24-.29.42a2.49,2.49,0,0,0-.42,1.87,10,10,0,0,1,1.05,0,.28.28,0,0,1-.08.55h-6.69c-.18,0-.21-.08-.31-.18,0-.55.7-.38,1.75-.38.66,0,1.45,0,2.1,0,0-.43.07-1.06-.17-1.36-.1.22,0,1.11-1,1.11a1.06,1.06,0,0,1-.81-.42c-.2-.39.09-.49-.35-.88-.26-.23-.42-.27-.55-.69a4.33,4.33,0,0,1-.15-1.15c-.37-.21-.59-.22-.74-.69-.31-.91.32-.75.55-.75l-.05-.46c.06-.83.73-1.29.88-.62,0,.16,0,.2.15.34l.11-.27a3.12,3.12,0,0,1,.38-.85,3.74,3.74,0,0,1,3.11-1.79h6.44a2.36,2.36,0,0,1,2.11,1.4,9.74,9.74,0,0,1,.21,3.29" transform="translate(-379.76 -333.32)"/><path class="cls-2" d="M403,347.46a3.63,3.63,0,0,1-.62.15c-1.18.34-1.91,2-.79,2.83a3.33,3.33,0,0,0,.53.26,1.91,1.91,0,0,0-.4,1.51c0,.63,0,1.26,0,1.9h-.36a3,3,0,0,0-.42-2c-.31-.55-.29-1.54-.55-1.92-.58-.06-.42.34-.33.79.37,1.87.37,1.06.66,1.91a4,4,0,0,1,.09,1.25h-.35a4.14,4.14,0,0,0-.14-1.52,5,5,0,0,1-.5-1.14c-.08-.39-.15-1.22-.36-1.29-.65-.23-.24.83-.25,1.12h-1.79c0-.35.4-1.24-.2-1.13-.27,0-.3.77-.4,1.26a4.69,4.69,0,0,1-.49,1.16,4.18,4.18,0,0,0-.15,1.54h-.29c0-1.6.07-1.05.49-2a4.62,4.62,0,0,0,.25-1c.05-.28.28-.88-.13-.91s-.3,1.14-.68,1.85a3,3,0,0,0-.41.88,5.92,5.92,0,0,0-.05,1.23H395a3.44,3.44,0,0,0-.26-1.8c.39-.26.42-1,.46-1.65a1,1,0,0,0,.67-1.29c-.14-.2-.23-.1-.51-.1,0-.4.13-.54,0-.93a1.4,1.4,0,0,0-.23-.34.3.3,0,0,0-.28-.11c-.31,0-.24.32-.34.54-.26.57-.76.3-1,.28a4.21,4.21,0,0,0-.71.06,3.45,3.45,0,0,1,1.13-1.86,3.13,3.13,0,0,1,2.26-.72,2.39,2.39,0,0,0,4,.54,2.8,2.8,0,0,1,.39-.54,2.5,2.5,0,0,1,1.53.32,2.3,2.3,0,0,1,.92,1" transform="translate(-379.76 -333.32)"/><path class="cls-2" d="M394.17,349.53c-.11.17-.35.4-.22.68.3.41.49-.14.59-.25a.64.64,0,0,1,.8-.12c-.09.24-.16.25-.45.32s-.27.13-.27.71c0,1-.26,1-.55,1.3s-.18.26-1.15.26c-.21,0-.78-.54-.85-.76s-.09-1.21-.18-1.35-.14-.09-.4-.18-.22-.12-.28-.32c.94-.2.77.35,1,.49a.24.24,0,0,0,.37-.15c.1-.23-.13-.43-.22-.65a1.81,1.81,0,0,1,1.61-.08.57.57,0,0,1,.15.1" transform="translate(-379.76 -333.32)"/><path class="cls-1" d="M394.12,351.59c-.14,0-.26-.07-.26-.21,0-.32.27-.43.47-.26a.28.28,0,0,1-.21.47" transform="translate(-379.76 -333.32)"/><path class="cls-1" d="M392.78,351.4l-.16.18-.33,0c-.13-.33-.12-.56.37-.47a.54.54,0,0,1,.12.32" transform="translate(-379.76 -333.32)"/><path class="cls-1" d="M398.84,354.56a.31.31,0,0,1-.28.11c-.24,0-.22-.22-.22-.4.36-.28.57-.09.5.29" transform="translate(-379.76 -333.32)"/><path class="cls-2" d="M404.46,351.17a1.46,1.46,0,0,1-.16.56s0,0-.07-.08a.33.33,0,0,1,0-.11c-.1-.31-.16-.56.11-.67.13.09.16.08.16.31" transform="translate(-379.76 -333.32)"/><path class="cls-2" d="M392.93,353h.72s.07.32-.36.32c-.25,0-.33-.09-.36-.31" transform="translate(-379.76 -333.32)"/><path class="cls-1" d="M382.89,346a2.9,2.9,0,0,0-1.91.46,2.78,2.78,0,0,0-.57,4.08,4,4,0,0,0,.64.57c-.36,0-1.1,0-1.23.07a.2.2,0,0,0,0,.31c.14.1,4.87,0,5.26,0s5.09,0,5.24,0,.28-.39-.27-.39c-.3,0-.62,0-.91,0a2.85,2.85,0,0,0,1.07-1.28,3,3,0,0,0,0-2,2.82,2.82,0,0,0-1-1.33,2.92,2.92,0,0,0-1.93-.48,6.63,6.63,0,0,0,.36-.67,2.77,2.77,0,0,0-1.32-3.49c-.12-.06-.59-.29-.74-.17a.2.2,0,0,0,0,.32c.06,0,.27.1.39.15a2.36,2.36,0,1,1-1.85,0c.16-.07.69-.18.43-.45s-.6.07-.74.14a2.77,2.77,0,0,0-1.18,3.84,3.24,3.24,0,0,1,.2.33" transform="translate(-379.76 -333.32)"/><path class="cls-2" d="M380.18,348.63a2.2,2.2,0,0,0,.67,1.81,2,2,0,0,0,.63.48,2.71,2.71,0,0,0,2.36-.11c.21,0,.22.2.15.34h2.21c-.07-.14-.07-.34.15-.34a2.52,2.52,0,0,0,3-.35,2.36,2.36,0,1,0-3.84-.76c.09.23.35.51,0,.61-.17,0-.25-.3-.34-.42L385,350l-.06.13c-.07.12-.07.13-.2.17-.4-.1-.13-.38,0-.61a2.33,2.33,0,0,0-.5-2.55,2.36,2.36,0,0,0-1.62-.71,2.38,2.38,0,0,0-2.43,2.2" transform="translate(-379.76 -333.32)"/><path class="cls-1" d="M384.56,345.8c0-.43-.27-.19-.62-.78a1.34,1.34,0,1,1,1.94.41c-.12.08-.37.17-.28.37.16.39.78-.26.87-.36a1.75,1.75,0,1,0-2.74,0,1.64,1.64,0,0,0,.37.36c.23.16.27.18.47,0" transform="translate(-379.76 -333.32)"/><path class="cls-1" d="M381.9,347.41c.29.2.26,0,.65,0a1.34,1.34,0,1,1-1.17,2,1.33,1.33,0,0,1-.18-.67c0-.41.18-.41,0-.69-.21,0-.25,0-.3.15a1.75,1.75,0,1,0,1.77-1.2,1.63,1.63,0,0,0-.49,0c-.21,0-.25.07-.25.32" transform="translate(-379.76 -333.32)"/><path class="cls-1" d="M389.31,348.19c-.22-.06-.19-.05-.36.06,0,.42.25,1.41-.83,1.8a1.34,1.34,0,1,1-.83-2.55c.64-.19,1,.22,1.07-.14.08-.51-2-.56-2.4,1a1.75,1.75,0,1,0,3.34-.16" transform="translate(-379.76 -333.32)"/><path class="cls-1" d="M387.66,349.7a.9.9,0,0,0,.92-1,.91.91,0,1,0-.92,1" transform="translate(-379.76 -333.32)"/><path class="cls-1" d="M382.51,347.89a.9.9,0,1,0,.08,1.81.9.9,0,0,0-.08-1.81" transform="translate(-379.76 -333.32)"/><path class="cls-1" d="M384.91,343.47a.9.9,0,0,0,.38,1.76.9.9,0,1,0-.37-1.76" transform="translate(-379.76 -333.32)"/><path class="cls-2" d="M382.42,348.31a.5.5,0,1,0,.26,1,.5.5,0,0,0-.26-1" transform="translate(-379.76 -333.32)"/><path class="cls-2" d="M387.55,348.32a.46.46,0,0,0-.3.21.49.49,0,0,0,.55.74c.63-.15.35-1.17-.25-1" transform="translate(-379.76 -333.32)"/><path class="cls-2" d="M384.61,344.36a.5.5,0,1,0,.46-.5.48.48,0,0,0-.46.5" transform="translate(-379.76 -333.32)"/><path class="cls-2" d="M385.1,347.71s.34-.57.35-.6h-.7s.31.56.35.6" transform="translate(-379.76 -333.32)"/><path class="cls-1" d="M384.91,341.67c0,.15,0,.24.1.29.39.16.4-.65-.1-.29" transform="translate(-379.76 -333.32)"/><path class="cls-1" d="M385.75,350.81c.14,0,.23,0,.28-.1.18-.4-.64-.42-.28.1" transform="translate(-379.76 -333.32)"/><path class="cls-1" d="M381.38,347.52c-.09,0-.08,0-.12.09a.2.2,0,0,0,.27.27c.21-.1.1-.47-.15-.36" transform="translate(-379.76 -333.32)"/><path class="cls-1" d="M384.15,350.62c0,.18.14.19.3.19s.16-.23,0-.34a.2.2,0,0,0-.34.15" transform="translate(-379.76 -333.32)"/><path class="cls-1" d="M384.91,346c.45.32.51-.3.19-.3s-.2.13-.19.3" transform="translate(-379.76 -333.32)"/><path class="cls-1" d="M389,347.79c0-.52-.51-.28-.36,0s.27.06.36,0" transform="translate(-379.76 -333.32)"/><path class="cls-1" d="M398.43,335.39c0,1.28-.26,1.11-.34,1.54.41,0,.34.16.34.8a2.49,2.49,0,0,1-.11.61c-.07.21-.17.31-.23.49l.28,0a2.2,2.2,0,0,1,.06.77,2.38,2.38,0,0,1-.35,1.09c.43,0,.35.2.35.83a1.72,1.72,0,0,1-1.24,1.66,2.55,2.55,0,0,1-.39.1c-.43.07-.31,0-.37.13h2.37c.23.06.23.4-.1.4h-4.21a.2.2,0,0,1-.18-.33c.1-.13.34-.09.52-.09H396c0-.12.11-.06-.36-.13a1.83,1.83,0,0,1-1.66-2c0-.37,0-.56.36-.56a2.45,2.45,0,0,1-.36-1.39c0-.36,0-.51.36-.52a2.41,2.41,0,0,1-.36-1.37,1.47,1.47,0,0,1,.08-.5l.27,0a2.49,2.49,0,0,1-.36-1.34c0-.54.07-.56.44-.56a2,2,0,0,1,1.76.94,2.05,2.05,0,0,1,2-.94c.19,0,.23.19.23.38" transform="translate(-379.76 -333.32)"/><path class="cls-1" d="M393.38,337.38a2.29,2.29,0,0,1-.37,1.44c.42,0,.37.19.37.67a2.4,2.4,0,0,1-.37,1.24c.43,0,.37.24.37.71a1.8,1.8,0,0,1-1.62,1.86c-.44.07-.34,0-.4.13h1c.37,0,.87-.11.87.23,0,.14-.11.19-.26.19h-4.33a.2.2,0,0,1-.06-.4H391c-.06-.13.07-.06-.37-.13a2.49,2.49,0,0,1-.39-.1,1.73,1.73,0,0,1-1.24-1.7c0-.68-.06-.74.36-.8a2.24,2.24,0,0,1-.36-1.49c0-.32,0-.39.35-.4a2.42,2.42,0,0,1-.35-1.51c0-.31,0-.38.34-.38a2.3,2.3,0,0,1,1.57.54c.14.14.19.27.31.4a2,2,0,0,1,1.88-.95c.32,0,.33.15.33.46" transform="translate(-379.76 -333.32)"/><path class="cls-2" d="M391.4,339.12a1.59,1.59,0,0,1,.33-1.33,1.81,1.81,0,0,1,1.24-.46,1.49,1.49,0,0,1-1.57,1.79" transform="translate(-379.76 -333.32)"/><path class="cls-2" d="M396,340.73V341a1.76,1.76,0,0,1-1.18-.39,1.73,1.73,0,0,1-.43-1.4,1.44,1.44,0,0,1,1.62,1.5" transform="translate(-379.76 -333.32)"/><path class="cls-2" d="M393,341.44a1.51,1.51,0,0,1-.44,1.1,1.83,1.83,0,0,1-1.17.4,1.72,1.72,0,0,1,.4-1.39,1.86,1.86,0,0,1,1.21-.4Z" transform="translate(-379.76 -333.32)"/><path class="cls-2" d="M396,337.21a1.48,1.48,0,0,1-1.6-1.79,1.78,1.78,0,0,1,1.25.44,1.63,1.63,0,0,1,.35,1.35" transform="translate(-379.76 -333.32)"/><path class="cls-2" d="M396,338.81c0,.35,0,.34-.19.31l-.35-.07a1.44,1.44,0,0,1-1.07-1.73c1,0,1.61.47,1.61,1.49" transform="translate(-379.76 -333.32)"/><path class="cls-2" d="M396,342.94a1.5,1.5,0,0,1-1.61-1.8c1.13,0,1.69.62,1.61,1.8" transform="translate(-379.76 -333.32)"/><path class="cls-2" d="M391.37,341a1.65,1.65,0,0,1,.36-1.32,1.76,1.76,0,0,1,1.25-.47,1.81,1.81,0,0,1-.36,1.33,1.7,1.7,0,0,1-1.25.47" transform="translate(-379.76 -333.32)"/><path class="cls-2" d="M398,339.26a1.7,1.7,0,0,1-.34,1.29,1.81,1.81,0,0,1-1.25.49c0-1,.19-1.6,1.21-1.77l.2,0h.09c.07,0,0,0,.09,0" transform="translate(-379.76 -333.32)"/><path class="cls-2" d="M396.45,339.14c-.07-.87.13-1.41.86-1.68a4.59,4.59,0,0,1,.7-.14,1.65,1.65,0,0,1-.32,1.32,1.89,1.89,0,0,1-1.25.51" transform="translate(-379.76 -333.32)"/><path class="cls-2" d="M390.95,341c-1.12-.09-1.64-.58-1.59-1.82,1.15.07,1.66.58,1.59,1.82" transform="translate(-379.76 -333.32)"/><path class="cls-2" d="M390.94,339.14a1.92,1.92,0,0,1-1.21-.47,1.62,1.62,0,0,1-.36-1.36c.55.13.87.09,1.23.45a1.71,1.71,0,0,1,.34,1.38" transform="translate(-379.76 -333.32)"/><path class="cls-2" d="M398,341.18a1.66,1.66,0,0,1-.36,1.28,1.77,1.77,0,0,1-1.24.49c0-1,.19-1.56,1.21-1.77a.55.55,0,0,1,.39,0" transform="translate(-379.76 -333.32)"/><path class="cls-2" d="M390.95,342.95a1.91,1.91,0,0,1-1.22-.47,1.79,1.79,0,0,1-.37-1.34,1.71,1.71,0,0,1,1.25.46,1.65,1.65,0,0,1,.34,1.35" transform="translate(-379.76 -333.32)"/><path class="cls-2" d="M398,335.46a1.69,1.69,0,0,1-.36,1.28,1.84,1.84,0,0,1-1.24.49c0-1,.19-1.56,1.2-1.77l.2,0Z" transform="translate(-379.76 -333.32)"/><path class="cls-1" d="M391.36,336c0,.87.08,1-.3.94-.15-.22-.1-.47-.1-.86s.4-.31.4-.08" transform="translate(-379.76 -333.32)"/><path class="cls-1" d="M396.27,334c.22.09.16.15.16.64,0,.22,0,.57-.27.47s-.14-.43-.14-.66,0-.56.24-.45" transform="translate(-379.76 -333.32)"/><path class="cls-1" d="M392.13,336.09c.09.33.13,1.17-.35.76,0-.44-.12-.91.35-.76" transform="translate(-379.76 -333.32)"/><path class="cls-1" d="M390.38,336.05c.23.06.18.26.18.5s0,.45-.24.4-.16-.31-.16-.51,0-.45.23-.39" transform="translate(-379.76 -333.32)"/><path class="cls-1" d="M397.23,334.33v.53c0,.15-.44.54-.41-.41a.4.4,0,0,1,.11-.3c.17,0,.3,0,.3.19" transform="translate(-379.76 -333.32)"/><path class="cls-1" d="M395.61,334.37c0,.45.08.8-.34.64,0-.06-.17-.83.12-.87s.22.07.22.23" transform="translate(-379.76 -333.32)"/><path class="cls-1" d="M394,343.63v.09c-.13.13-.09.13-.28.13-.42-.44.28-.52.28-.23" transform="translate(-379.76 -333.32)"/><path class="cls-1" d="M390.56,335.61a.2.2,0,1,1-.4,0,.2.2,0,0,1,.4,0" transform="translate(-379.76 -333.32)"/><path class="cls-1" d="M391.78,335.61c0-.13,0-.09.13-.19s.35.13.23.32-.34.11-.36-.13" transform="translate(-379.76 -333.32)"/><path class="cls-1" d="M396.16,333.73c-.06-.07-.15-.12-.12-.25a.21.21,0,0,1,.24-.15c.18,0,.27.38-.12.4" transform="translate(-379.76 -333.32)"/><path class="cls-1" d="M397.23,333.73c0,.19-.13.19-.3.19-.15-.22-.17-.39.22-.37a.33.33,0,0,1,.08.19" transform="translate(-379.76 -333.32)"/><path class="cls-1" d="M395.57,333.88c-.34.11-.44-.15-.3-.3s.41,0,.3.3" transform="translate(-379.76 -333.32)"/><path class="cls-1" d="M391.36,335.39a.33.33,0,0,1-.08.23H391l0-.29c.2-.1.39-.1.39.07" transform="translate(-379.76 -333.32)"/></svg>