<svg id="Capa_1" data-name="Capa 1" xmlns="http://www.w3.org/2000/svg" viewBox="0 0 26.09 26.62"><defs><style>.cls-1,.cls-4{fill:#1d1d1b;}.cls-1,.cls-2{fill-rule:evenodd;}.cls-2,.cls-3{fill:#fff;}</style></defs><title>Logo Energía</title><path class="cls-1" d="M389.52,338.75H392c.53,0,.5.21.5,1.22,0,.3-.15.54-.44.44s-.24-.4-.24-.75a27,27,0,0,0-3,1.73v2.1h3.21c.55,0,.43.47.43,1.17,0,.34,0,.36-.25.49-.49,0-.43-.25-.43-.74l-2.91,1.6a20.78,20.78,0,0,0,.4,2.58c.14.83.36,1.79.42,2.61,2.47.19,2.32-.61,2.32,1.43h1.81c.71,0,.57.68.12.68H385.4c-.59,0-.64-.68.06-.68h5.93v-.76h-8.84c.08,1.69.29,1.44-1.67,1.44-.3,0-.82.09-1-.11s0-.57.39-.57h1.67c0-1.78-.34-1.42,2.29-1.42l.88-5.2-2.93-1.62c0,.31,0,.59-.18.71-.76.46-.48-1.42-.45-1.52a23.16,23.16,0,0,1,3.59-.1c0-2.48.15-2.09-.67-2.54l-2.29-1.28c0,.26,0,.59-.17.7-.66.41-.52-.84-.52-1.21a.36.36,0,0,1,.34-.42h7.67Z" transform="translate(-379.77 -330.67)"/><path class="cls-2" d="M388.35,351.2l-3.44,0,.35-2.05a36.14,36.14,0,0,1,3.1,2" transform="translate(-379.77 -330.67)"/><path class="cls-2" d="M389,350.79a29.89,29.89,0,0,1-2.86-1.91h2.41c.24,0,.2.37.29.88.06.36.12.67.16,1" transform="translate(-379.77 -330.67)"/><path class="cls-2" d="M387.94,348.24h-2.51l.27-1.76,1.68,1.27c.17.13.47.28.56.49" transform="translate(-379.77 -330.67)"/><path class="cls-2" d="M388.51,347.75c-.33-.2-.69-.51-1-.74a7.2,7.2,0,0,1-1-.81h1.73Z" transform="translate(-379.77 -330.67)"/><path class="cls-2" d="M388.18,345.16a16.57,16.57,0,0,1-1.72-1.35h1.72Z" transform="translate(-379.77 -330.67)"/><path class="cls-2" d="M385.16,340.53a12,12,0,0,1-2-1.11h2Z" transform="translate(-379.77 -330.67)"/><path class="cls-2" d="M387.49,345.52H385.8V344.2a13.89,13.89,0,0,1,1.7,1.32" transform="translate(-379.77 -330.67)"/><polygon class="cls-2" points="5.39 14.62 3.41 13.53 5.39 13.49 5.39 14.62"/><polygon class="cls-2" points="9.11 9.89 9.1 8.75 11.06 8.75 9.11 9.89"/><polygon class="cls-2" points="9.1 14.62 9.1 13.49 11.04 13.49 9.1 14.62"/><path class="cls-2" d="M387.41,343.14h-1.62v-1.19a8,8,0,0,1,1.2.83Z" transform="translate(-379.77 -330.67)"/><polygon class="cls-2" points="8.41 12.15 6.73 10.93 8.41 10.91 8.41 12.15"/><path class="cls-2" d="M387.43,340.89h-1.64v-1.11a11.53,11.53,0,0,1,1.64,1.11" transform="translate(-379.77 -330.67)"/><path class="cls-2" d="M388.18,340.34v.24a13.4,13.4,0,0,1-1.6-1.17h1.61Z" transform="translate(-379.77 -330.67)"/><path class="cls-1" d="M383.8,353.32c-.67-.25-.13-.88.22-.59.06.05.32.42-.22.59" transform="translate(-379.77 -330.67)"/><path class="cls-1" d="M395.13,355c-.09.17-.61.05-.95.67a2.45,2.45,0,0,0-.13,1.44c.12.2.66.13,1,.13h5.76a10.38,10.38,0,0,0,2.25-.07,2,2,0,0,0-.35-1.8,1,1,0,0,0-.34-.22.87.87,0,0,0-.19-.06c-.25-.06-.19.19-.19-1.2,0-.62-.08-4.11,0-4.38a1.48,1.48,0,0,1,.69,0c.09.27,0,3.32,0,4,0,.54,0,.8.28,1.11a1,1,0,0,0,1.74-.36,23.31,23.31,0,0,0,.07-2.68c.76-.06.57.09.57-1.25,0-.82.1-.91-.27-1,.45-.61.91-.6.57-1-.33,0-.49.25-.84.6-.12.12-.24.26-.36.36s-.1.08-.29.08c-.6,0-.44.09-.45,1.7,0,.26,0,.45.21.5h.37a14,14,0,0,1-.08,2.63.56.56,0,0,1-.89.12c-.25-.25-.17-.74-.17-1.18v-2.71c0-.42.07-1-.14-1.22s-.58-.23-1.09-.26c0-.83,0-1.67,0-2.5a1,1,0,0,0-.35-.92,1.54,1.54,0,0,0-1-.22h-2.5a10.19,10.19,0,0,0-2.44.1c-.7.33-.56,1-.56,1.93Z" transform="translate(-379.77 -330.67)"/><path class="cls-2" d="M395.63,355.09h5.91c.07-.64,0-6.28,0-7.61,0-.41.11-1.14-.11-1.41s-.89-.19-1.33-.19h-3c-1.78,0-1.46-.28-1.46,3.12,0,.83-.06,5.71,0,6.08" transform="translate(-379.77 -330.67)"/><path class="cls-1" d="M396,347.48a14.39,14.39,0,0,0,.06,2.34.59.59,0,0,0,.23.06h4.57c.23,0,.34,0,.34-.28v-2.24a1,1,0,0,0-1.06-.9h-3a1,1,0,0,0-1.09,1" transform="translate(-379.77 -330.67)"/><path class="cls-2" d="M396.46,347.48v1.92c1.64,0,.75.07,1.32-.52a1.07,1.07,0,0,1,1-.33c.22,0,.18.1.34,0s.34-.42.51-.13c0,0,.14.07,0,.28s-.13.11-.2.22c.44.67,0,.52,1.31.52v-2a.48.48,0,0,0-.51-.51h-3.3c-.28,0-.43.26-.43.55" transform="translate(-379.77 -330.67)"/><path class="cls-2" d="M394.62,355.94h5.32c.35,0,.46,0,.42.37a3,3,0,0,1-1.35.11h-4.53a.72.72,0,0,0,0,.35l8.12,0c.07-.66,0-1.23-.84-1.23h-6.43c-.29,0-.7.05-.75.38" transform="translate(-379.77 -330.67)"/><path class="cls-1" d="M397.49,350.56c-.41.08-.44.07-.44.69,0,.09,0,1.3,0,1.37,0,1.33,0,1.18,1.41,1.18s1.71.21,1.71-.89c0-.43.08-2.11-.23-2.29a11.6,11.6,0,0,0-2.45-.06" transform="translate(-379.77 -330.67)"/><rect class="cls-3" x="17.67" y="20.34" width="2.35" height="2.38"/><path class="cls-1" d="M399.65,347.83c.82-.43-1.77-1.37-3,.24-.19.25.07.53.33.33a2,2,0,0,1,1.95-.74c.27,0,.53.24.7.16" transform="translate(-379.77 -330.67)"/><rect class="cls-3" x="24.51" y="19.27" width="0.69" height="1.27"/><path class="cls-2" d="M398,349.4h1.15a.58.58,0,0,0-.56-.39h0a.59.59,0,0,0-.55.39" transform="translate(-379.77 -330.67)"/><path class="cls-1" d="M400.79,356.29c.08.05.16.15.31.1a.22.22,0,0,0,.14-.29c-.06-.2-.46-.31-.45.19" transform="translate(-379.77 -330.67)"/><path class="cls-1" d="M400.26,348c-.34.15-.15.5.14.42s.17-.56-.14-.42" transform="translate(-379.77 -330.67)"/><path class="cls-1" d="M398,352.54a.62.62,0,0,0,.63.64.64.64,0,0,0,.56-.91l-.4-.81c-.06-.12-.06-.2-.21-.21a3.55,3.55,0,0,0-.32.6,1.56,1.56,0,0,0-.26.68" transform="translate(-379.77 -330.67)"/><path class="cls-1" d="M394.74,336.74h.64c0-1.92,0-.95-.69-1.93l.32-.34.62.58.62-.59.36.34c-.74,1-.7,0-.7,1.94h.64c.44-1.18,1-1.77,1-2.54a1.87,1.87,0,0,0-3.71,0,1.93,1.93,0,0,0,.38,1.34,8.78,8.78,0,0,1,.56,1.25m2,.52h-2.15c0,.83.35.81,1.07.81s1.1.05,1.08-.81m-1.6,1.87h1.05v-.53h-1.05Zm.41-7.69h.23c.24,0,.14-.52.14-.74l-.52,0c0,.25-.09.76.14.76m2.6.35.34.36.52-.5-.33-.35Zm-5.84-.16.5.52.36-.33-.5-.53Zm-4,9.52c0,.72-.06,1.26.31,1.26h7c.35,0,.36-.21.35-.56v-2.2c1.25,0,.61-.25.8-1.13.07-.32.52-.39.52-.74v-.62c0-.49-.26-.16,0-.76.46-1,.9-1.42.72-2.43a2.38,2.38,0,0,0-4.67,0c-.21,1.07.24,1.49.69,2.44.31.66.05.28.05.8v.63c0,.33.42.44.51.7s0,.76.09,1.14l.72,0v2.25h-6.56v-.75Z" transform="translate(-379.77 -330.67)"/><path class="cls-4" d="M396.17,340.79a1.59,1.59,0,0,0-1.21,0,1.59,1.59,0,0,0-.86.86,1.6,1.6,0,0,0,0,1.21,1.59,1.59,0,0,0,.86.86,1.58,1.58,0,0,0,1.73-2.58,1.6,1.6,0,0,0-.51-.34m-.61-.58a2.05,2.05,0,1,1-.78.16,2,2,0,0,1,.78-.16" transform="translate(-379.77 -330.67)"/><path class="cls-1" d="M394.92,342.48c0,.17.29.1.42.12a2.2,2.2,0,0,0-.07.73c.14.14.38-.34.53-.54s.44-.54.41-.71a.83.83,0,0,0-.42,0v-.71c0-.13-.1-.3-.26,0s-.61,1.09-.61,1.16" transform="translate(-379.77 -330.67)"/></svg>