<svg id="Capa_1" data-name="Capa 1" xmlns="http://www.w3.org/2000/svg" viewBox="0 0 26.25 26.85"><defs><style>.cls-1{fill:#1d1d1b;}.cls-1,.cls-2,.cls-3{fill-rule:evenodd;}.cls-2{fill:#fff;}.cls-3{fill:#12100c;}</style></defs><title>Logo IPPU</title><path class="cls-1" d="M383.93,359.64h-.22a4,4,0,0,1-2.1-.49H386a4.25,4.25,0,0,1-2.09.49m1.54-1H385l-.45-2.64-.45,0,.42,2.6h-.9l.2-1.86-.47-.09-.2,1.95h-.47l.62-4.22c.08-.19.08-.11.71-.11h.82Zm-3.36-3.13h-.45v-.44h.45Zm1.44-2.85h-.45v-.49h.44Zm2.92,3.34H386v-.42l.21,0h.28Zm4.81-6.18,0,.2h-1.87l0-.2v-.27h1.9Zm-6.52,0v.2c-1.34,0-1.19,0-1.19,1.67h-.45c0-1.73-.17-2.14,1.65-2.14Zm3.64,2.62h-.47l0-3.84.48,0Zm4.37,0V348.6c.68,0,.48-.15.48,1.9,0,.4,0,.8,0,1.2,0,.73.18.76-.48.76m-.51-.48h-3.36l0-.22v-2.68h3.37Zm-4.81,0c-.57.11-1.42-.09-1.88.07a11.09,11.09,0,0,0-.07,1.85l-2.9,0v-2.41c0-.94,0-1.4.5-1.91s1-.5,1.92-.5a20.71,20.71,0,0,1,2.4,0ZM381,361.07h.49l0,.47H380v-.48Zm-.07-3.94c-.24-.14-.49-.34-.75-.51-.91-.6,0-1.26.47-.46a2,2,0,0,1,.28,1m6.08.53a2.26,2.26,0,0,1,.35-1.15c.62-1,1.78,0,.6.59-.34.18-.63.36-.95.56m-5.59-.37c0,1.21-.36.52-1.15-.06-.39-.28-1.12-.57-.91-1.32a.88.88,0,0,1,1.46-.32,2.85,2.85,0,0,1,.59,1.71m5.72,5.1h-2.39l0-.47h2.43Zm1.21-1.35h-.94v-.45h.94Zm-8.89-1h-.94v-.45h.94Zm7.43,0a4.29,4.29,0,0,1-1.34.72c-1.41.46-3.88.34-4.79-.77l.26-.28c.26.07.32.2.57.33a5.31,5.31,0,0,0,3.77.3,3.5,3.5,0,0,0,1.19-.62Zm4,0-.2,0h-2.48l-.21,0v-.41h2.88Zm-2.69-4.44a.91.91,0,0,1,.46,1.59c-.2.2-.92.49-1.6,1-.87.71-.43-1.15-.31-1.51.18-.52.72-1.28,1.44-1.12m3.43,3.53h-4.87c-.17.06-.12.44-1.18.74a7.19,7.19,0,0,1-3.45,0,1.64,1.64,0,0,1-1-.62,21.32,21.32,0,0,0-3.46-.08h-.47a1.29,1.29,0,0,1,.06-.39,40,40,0,0,1,5-.1l.56-3.72c.11-.68.13-.58-.23-.6s-.38-.12-.37-.72c0-.24,0-.47,0-.71,0-1.43-.19-2.86.65-3.67s2.23-.61,3.75-.61c1.27,0,.8.07,1-.44a3.53,3.53,0,0,1,1,0c.45,0,.38.1.44.49h3.35c0-.46,0-.49.5-.49a2.72,2.72,0,0,1,.89.06,30.59,30.59,0,0,1,0,4.65,2.9,2.9,0,0,1-.94.06c-.46,0-.41-.06-.45-.49H388.9c-.08.44,0,.49-.5.49a3.65,3.65,0,0,1-.91,0c-.14-.47.15-.45-.53-.44-.32,0-.65,0-1,0-.12.57.09,1.35-.06,1.87l-.61,0c0,.43.53,3.51.61,4.3.52.11,3.38,0,4.52,0,.4,0,1.58-.11,1.79.13a1.9,1.9,0,0,1,0,.35Z" transform="translate(-367.47 -335.55)"/><path class="cls-1" d="M371.33,338.95a1,1,0,0,0-1.14-.11,1,1,0,0,0-.39,1.09,2.48,2.48,0,0,0,1.28,1.86s0,0,0,0,0,0,0,0a5.17,5.17,0,0,0-1.32.6,4.78,4.78,0,0,0-2.22,4v2.93a3.23,3.23,0,0,0,3.25,3.23h3.2a3.29,3.29,0,0,0,2.42-1.13c.27-.32.37-.66.53-.7a21.51,21.51,0,0,0,3.36-.08,2.08,2.08,0,0,0,1.47-2v-3.18a3.88,3.88,0,0,0-2.74-3.69,3.37,3.37,0,0,0,.83-.72,2.39,2.39,0,0,0,.48-1.09c.13-.83-.24-1.36-1-1.32a1.16,1.16,0,0,0-.56.24,1.28,1.28,0,0,0-.92-.48,1.05,1.05,0,0,0-1,.5c-1.49-.91-2.09.78-1.08,2.14a3.71,3.71,0,0,0,.83.74,4.46,4.46,0,0,0-1.43.8A3.91,3.91,0,0,0,374,342l-.34-.11-.07,0-.06,0a2.59,2.59,0,0,0,1.24-1.78c.22-1.41-1-1.54-1.5-1a1.41,1.41,0,0,0-1-.5c-.54,0-.67.27-1,.48" transform="translate(-367.47 -335.55)"/><path class="cls-2" d="M370.45,346H370a5.68,5.68,0,0,1,1.06-3.67,3.55,3.55,0,0,0-1.19.52,4.41,4.41,0,0,0-2,3.35v3.38a2.78,2.78,0,0,0,2.59,2.57H374a2.79,2.79,0,0,0,2.64-2.87v-2.67a4.45,4.45,0,0,0-.91-2.77,4.39,4.39,0,0,0-2.24-1.51,5.06,5.06,0,0,1,.76,1.52,7.74,7.74,0,0,1,.31,2.17h-.46v-.35c0-1.21-.71-3.73-2-3.51s-1.71,2.36-1.71,3.85" transform="translate(-367.47 -335.55)"/><path class="cls-2" d="M377.11,346.53a26.58,26.58,0,0,1-.12,3.79c.73,0,2.2.08,2.87,0a1.62,1.62,0,0,0,1.39-1.5v-3.48a3.45,3.45,0,0,0-2.33-3,7,7,0,0,1,.71,3.68h-.44a8.92,8.92,0,0,0-.29-2.59c-.18-.59-.66-1.66-1.48-1.16a3.06,3.06,0,0,0-.85,2,9.7,9.7,0,0,1,.39,1,5.55,5.55,0,0,1,.17,1.28" transform="translate(-367.47 -335.55)"/><path class="cls-2" d="M377,339.58h-.37c0-.19-.08-.29-.23-.38-.91-.52-1.09,1.58.55,2.28a2.07,2.07,0,0,0,2.89-1.92.46.46,0,0,0-.92,0h-.41c-.12-.15-.09-.29-.26-.46a.71.71,0,0,0-1,0c-.19.2-.1.35-.26.45" transform="translate(-367.47 -335.55)"/><path class="cls-2" d="M371.53,339.58c-.71,0-.21-.18-.64-.39s-1,.27-.5,1.25a2.08,2.08,0,0,0,3.75.06c.69-1.42-.53-1.76-.73-.92-.76,0-.27-.05-.63-.45a.69.69,0,0,0-1.14.2l0,.11Z" transform="translate(-367.47 -335.55)"/><path class="cls-1" d="M371.67,347l.32.24c.14-.11.16-.27.37-.32a.49.49,0,0,1,.55.18,6.9,6.9,0,0,1,.57,1h-.72v.44H374a5.67,5.67,0,0,0,.52-1l-.35-.17-.29.49c-.34-.32-.48-1-.88-1.19a.93.93,0,0,0-1.34.41" transform="translate(-367.47 -335.55)"/><path class="cls-3" d="M370.46,347.79h.64c-.34.48-.82.89-.78,1.35a.81.81,0,0,0,.95.7c.16-.05.1-.2.1-.42-.54-.06-.89-.11-.33-.8l.46-.52c0,.06,0,.11,0,.18l0,.12,0,.08,0,0,.4-.08-.26-1.08h-1.28Z" transform="translate(-367.47 -335.55)"/><path class="cls-3" d="M374,348.81c0,.57.11.66-1.17.6l-.18,0c.12-.16.18-.16.25-.36l-.26-.22a3.64,3.64,0,0,0-.83.8c.23.38.53.7.77,1.05.16-.11.25-.13.35-.32a1.59,1.59,0,0,1-.36-.5c.86,0,2.29.27,1.79-1.25Z" transform="translate(-367.47 -335.55)"/><path class="cls-2" d="M375.56,342.94a3.14,3.14,0,0,1,.59.67l.13-.34a3.19,3.19,0,0,1,.11-.34c.09-.24.22-.42.3-.63a3,3,0,0,0-1.12.65" transform="translate(-367.47 -335.55)"/><polygon class="cls-3" points="8.28 14.11 8.29 14.31 8.7 14.31 8.72 14.11 8.71 13.86 8.28 13.86 8.28 14.11"/><polygon class="cls-3" points="8.28 13.21 8.3 13.39 8.68 13.39 8.72 13.21 8.71 12.95 8.28 12.95 8.28 13.21"/><path class="cls-3" d="M384.94,340.51c0,.13,0,.45,0,.56l.28,0c.15-.16.09-.28.09-.54s-.41-.2-.41-.05" transform="translate(-367.47 -335.55)"/><path class="cls-3" d="M383,342a1.4,1.4,0,0,0,0,.56l.28,0c.15-.16.09-.28.09-.54s-.41-.2-.41-.05" transform="translate(-367.47 -335.55)"/><path class="cls-3" d="M382.83,336.89c0,.14,0,.45,0,.56l.28,0c.15-.16.09-.28.09-.54s-.41-.2-.41-.05" transform="translate(-367.47 -335.55)"/><path class="cls-3" d="M382,339.51a1.41,1.41,0,0,0,0,.56l.28,0c.15-.16.09-.28.09-.54s-.41-.2-.41-.05" transform="translate(-367.47 -335.55)"/><path class="cls-3" d="M385.43,337.91a1.4,1.4,0,0,0,0,.56l.28,0c.15-.16.09-.28.09-.54s-.41-.2-.41-.05" transform="translate(-367.47 -335.55)"/><path class="cls-3" d="M381.14,335.66a1.41,1.41,0,0,0,0,.56l.28,0c.15-.16.09-.28.09-.54s-.41-.2-.41-.05" transform="translate(-367.47 -335.55)"/><path class="cls-3" d="M379.09,337.11a1.4,1.4,0,0,0,0,.56l.28,0c.15-.16.09-.28.09-.54s-.41-.2-.41-.05" transform="translate(-367.47 -335.55)"/></svg>